<?xml version="1.0" encoding="UTF-8" standalone="no"?>
<!DOCTYPE svg PUBLIC "-//W3C//DTD SVG 1.1//EN" "http://www.w3.org/Graphics/SVG/1.1/DTD/svg11.dtd">
<svg width="100%" height="100%" viewBox="0 0 16 16" version="1.1" xmlns="http://www.w3.org/2000/svg" xmlns:xlink="http://www.w3.org/1999/xlink" xml:space="preserve" xmlns:serif="http://www.serif.com/" style="fill-rule:evenodd;clip-rule:evenodd;stroke-linejoin:round;stroke-miterlimit:1.41421;">
    <g transform="matrix(0.0127003,0,0,0.0127003,-0.128217,-0.128667)">
        <path d="M640.071,106.232C696.23,70.322 762.949,49.5 834.493,49.5C1034.07,49.5 1196.1,211.529 1196.1,411.102C1196.1,610.676 1034.07,772.705 834.493,772.705C820.63,772.705 806.948,771.923 793.489,770.4C802.361,801.74 807.109,834.804 807.109,868.969C807.109,929.355 792.275,986.304 766.055,1036.37C831.432,1063.06 909.274,1049.88 962.339,996.814C996.245,962.908 1015.29,916.92 1015.29,868.969L1196.1,868.969C1196.1,964.872 1158,1056.85 1090.18,1124.66C967.905,1246.94 779.837,1263.34 639.915,1173.85C583.759,1209.75 517.045,1230.57 445.507,1230.57C245.933,1230.57 83.905,1068.54 83.905,868.969C83.905,669.395 245.933,507.366 445.507,507.366C459.37,507.366 473.052,508.148 486.511,509.671C477.639,478.331 472.891,445.267 472.891,411.102C472.891,350.723 487.721,293.78 513.936,243.721C448.559,217.055 370.684,230.234 317.661,283.257C283.755,317.163 264.706,363.151 264.706,411.102L83.905,411.102C83.905,315.199 122.002,223.224 189.816,155.411C312.003,33.224 500.178,16.831 640.071,106.232ZM445.507,688.168C545.294,688.168 626.308,769.182 626.308,868.969C626.308,968.755 545.294,1049.77 445.507,1049.77C345.72,1049.77 264.706,968.755 264.706,868.969C264.706,769.182 345.72,688.168 445.507,688.168ZM834.493,230.301C934.28,230.301 1015.29,311.315 1015.29,411.102C1015.29,510.889 934.28,591.903 834.493,591.903C734.706,591.903 653.692,510.889 653.692,411.102C653.692,311.315 734.706,230.301 834.493,230.301Z"/>
    </g>
</svg>
